<mxfile host="app.diagrams.net" modified="2023-04-14T01:37:23.611Z" agent="Mozilla/5.0 (Windows NT 10.0; Win64; x64) AppleWebKit/537.36 (KHTML, like Gecko) Chrome/112.0.0.0 Safari/537.36" version="21.1.6" etag="zOYsT0SJxrosdhFr8HLn" type="github">
  <diagram name="第 1 页" id="LRGZXaspg-IvAahJO0_0">
    <mxGraphModel>
      <root>
        <mxCell id="0" />
        <mxCell id="1" parent="0" />
      </root>
    </mxGraphModel>
  </diagram>
</mxfile>
